<svg viewBox="0 0 32 32" xmlns="http://www.w3.org/2000/svg"><path d="m22 14a7.94 7.94 0 0 0 -4 1.0825v-6.0825a7 7 0 0 0 -14 0v14a6.999 6.999 0 0 0 12.2855 4.5878 7.9969 7.9969 0 1 0 5.7145-13.5878zm0 2a6.0046 6.0046 0 0 1 5.91 5h-11.82a6.0046 6.0046 0 0 1 5.91-5zm-16-7a5 5 0 0 1 10 0v6h-10zm5 19a5.0059 5.0059 0 0 1 -5-5v-6h9.765a7.9566 7.9566 0 0 0 -.7242 8.9315 4.9885 4.9885 0 0 1 -4.0408 2.0685zm11 0a6.0046 6.0046 0 0 1 -5.91-5h11.82a6.0046 6.0046 0 0 1 -5.91 5z"/><path d="m0 0h32v32h-32z" fill="none"/></svg>